<?xml version="1.0" encoding="UTF-8"?>
<svg version="1.1" xmlns="http://www.w3.org/2000/svg" width="1254" height="1254">
<path d="M0 0 C413.82 0 827.64 0 1254 0 C1254 413.82 1254 827.64 1254 1254 C840.18 1254 426.36 1254 0 1254 C0 840.18 0 426.36 0 0 Z " fill="#FDFDFD" transform="translate(0,0)"/>
<path d="M0 0 C3.12202458 0.00314355 6.24308316 -0.02031694 9.36499023 -0.0456543 C27.50343582 -0.10468583 44.86972292 1.85592014 62.40209961 6.62817383 C64.11671387 7.08546875 64.11671387 7.08546875 65.8659668 7.55200195 C80.06935893 11.42382492 93.42265841 16.7603024 106.58959961 23.31567383 C107.59676025 23.81623291 107.59676025 23.81623291 108.62426758 24.3269043 C142.56560092 41.36508825 174.35105262 66.14977985 197.58959961 96.31567383 C198.4887207 97.37915039 198.4887207 97.37915039 199.40600586 98.46411133 C206.9640711 107.45805118 213.222737 117.46451557 219.58959961 127.31567383 C220.25789795 128.34748779 220.25789795 128.34748779 220.93969727 129.40014648 C229.77021882 143.17202537 236.68734488 158.07954964 242.58959961 173.31567383 C242.8824585 174.06695557 243.17531738 174.8182373 243.47705078 175.59228516 C258.45067297 214.36532389 262.68851364 253.24042941 262.83959961 294.56567383 C262.84513855 295.57888702 262.85067749 296.59210022 262.85638428 297.63601685 C262.86806156 300.55542599 262.86436422 303.47438798 262.85522461 306.39379883 C262.85916229 307.26147385 262.86309998 308.12914886 262.86715698 309.02311707 C262.82978305 314.01812759 262.27423371 318.5477394 261.04789734 323.39399719 C260.42411472 326.00956434 260.27349746 328.57138485 260.15209961 331.25317383 C259.26224211 344.41692789 256.59197201 357.25851091 253.20483398 369.98999023 C252.49251828 372.68265665 251.7984861 375.37975864 251.10522461 378.07739258 C250.57955179 380.11524818 250.05351131 382.15300897 249.52709961 384.19067383 C249.15911255 385.61706177 249.15911255 385.61706177 248.78369141 387.07226562 C246.52469327 395.73995146 244.11877488 404.19461297 240.69116211 412.47583008 C239.35453063 415.92168498 238.22366101 419.42465065 237.08959961 422.94067383 C235.33172757 428.35317526 233.27717887 433.29885921 230.58959961 438.31567383 C229.2071597 441.44119014 227.87993765 444.5670336 226.64428711 447.75317383 C223.05977551 456.77711911 218.56715338 465.24934932 213.95874023 473.78051758 C213.05268509 475.45820599 212.15028151 477.13787209 211.25170898 478.81958008 C189.0251167 520.4090163 160.2437969 557.56354113 127.08959961 591.00317383 C126.22343018 591.88239502 125.35726074 592.76161621 124.46484375 593.66748047 C119.23476682 598.9044488 113.82198202 603.72169677 108.04516602 608.34814453 C106.09388595 609.91161302 104.1852906 611.49751809 102.30444336 613.14379883 C73.5439442 638.2232777 36.74212995 662.45587003 0.77709961 675.31567383 C-0.60459812 675.82167306 -1.98610587 676.32819133 -3.36743164 676.83520508 C-4.04499512 677.08222168 -4.72255859 677.32923828 -5.4206543 677.58374023 C-9.4151844 679.05313916 -13.37864137 680.60391602 -17.34790039 682.13989258 C-18.35852539 682.52790039 -19.36915039 682.9159082 -20.41040039 683.31567383 C-21.00103271 683.54633545 -21.59166504 683.77699707 -22.20019531 684.01464844 C-77.36070918 705.22809552 -141.67573371 712.03437998 -199.84790039 701.56567383 C-200.60798401 701.43151062 -201.36806763 701.29734741 -202.15118408 701.15911865 C-232.58448291 695.77399924 -272.91601727 686.81456804 -293.03540039 661.06567383 C-293.85046444 659.8308027 -294.64548411 658.58221999 -295.41040039 657.31567383 C-296.33852539 655.92348633 -296.33852539 655.92348633 -297.28540039 654.50317383 C-299.2346579 648.98027755 -299.5173248 643.41998183 -297.53149414 637.85083008 C-296.31748642 635.50695379 -294.97865865 633.43767276 -293.41040039 631.31567383 C-292.97211914 630.71110352 -292.53383789 630.1065332 -292.08227539 629.48364258 C-280.89363564 616.44004413 -261.23291962 613.60637685 -245.41040039 610.31567383 C-244.37189941 610.09814453 -243.33339844 609.88061523 -242.26342773 609.65649414 C-238.19695942 608.80735955 -234.12889181 607.96606805 -230.06054688 607.12597656 C-160.01920146 592.60919048 -92.18340805 560.76909143 -38.41040039 513.31567383 C-37.67861572 512.67146484 -36.94683105 512.02725586 -36.19287109 511.36352539 C-29.70330082 505.59188745 -23.49032731 499.57882031 -17.34790039 493.44067383 C-16.41913086 492.52415039 -15.49036133 491.60762695 -14.53344727 490.66333008 C-8.38336437 484.52619472 -2.82623615 478.10294902 2.58959961 471.31567383 C4.14910146 469.50059353 5.71093772 467.68751057 7.27709961 465.87817383 C19.76657969 450.85599733 29.99814644 434.29113048 39.58959961 417.31567383 C39.98373047 416.62135254 40.37786133 415.92703125 40.78393555 415.21166992 C46.77297576 404.58044605 51.74495043 393.50433807 56.58959961 382.31567383 C56.8704541 381.67726563 57.15130859 381.03885742 57.44067383 380.38110352 C65.5313428 361.8808167 70.64598169 342.44724971 74.52709961 322.69067383 C74.67662079 321.9426651 74.82614197 321.19465637 74.98019409 320.42398071 C86.691918 261.22090306 73.29317682 198.78616786 40.18579102 148.6574707 C33.77368126 139.2501662 26.40520663 130.58376336 18.58959961 122.31567383 C17.83420898 121.50743164 17.07881836 120.69918945 16.30053711 119.86645508 C9.61767516 112.93325791 2.30438413 107.0423106 -5.41040039 101.31567383 C-6.22081787 100.71408447 -6.22081787 100.71408447 -7.04760742 100.1003418 C-15.73251481 93.72641685 -24.90930597 88.36556392 -34.41040039 83.31567383 C-35.02399414 82.9826123 -35.63758789 82.64955078 -36.26977539 82.30639648 C-41.89982757 79.35177043 -47.75554971 77.30327698 -53.78540039 75.31567383 C-54.84033691 74.96754639 -55.89527344 74.61941895 -56.98217773 74.26074219 C-75.11970827 68.39659435 -92.01360161 66.27532803 -111.03540039 66.19067383 C-112.09194824 66.18583984 -113.14849609 66.18100586 -114.23706055 66.17602539 C-115.73438721 66.17940918 -115.73438721 66.17940918 -117.26196289 66.18286133 C-118.15737793 66.18398926 -119.05279297 66.18511719 -119.9753418 66.1862793 C-122.26930284 66.30817616 -124.20294512 66.71599931 -126.41040039 67.31567383 C-128.28289196 67.43102789 -130.15940161 67.49053233 -132.03540039 67.50317383 C-132.99704102 67.51735352 -133.95868164 67.5315332 -134.94946289 67.54614258 C-137.41040039 67.31567383 -137.41040039 67.31567383 -139.41040039 65.31567383 C-139.26309059 60.56084076 -136.68181339 57.89056638 -133.53540039 54.62817383 C-133.03854736 54.10416992 -132.54169434 53.58016602 -132.02978516 53.0402832 C-130.50486159 51.45006429 -128.9617402 49.88009662 -127.41040039 48.31567383 C-126.5712207 47.46360352 -125.73204102 46.6115332 -124.86743164 45.73364258 C-100.71596996 22.55572819 -66.90102266 8.56350943 -34.41040039 2.31567383 C-33.46479248 2.13093506 -32.51918457 1.94619629 -31.54492188 1.75585938 C-21.05936645 -0.0205375 -10.60963176 -0.02225278 0 0 Z " fill="#FDD559" transform="translate(726.410400390625,451.684326171875)"/>
<path d="M0 0 C1.41378937 0.00089127 1.41378937 0.00089127 2.85614014 0.00180054 C5.54225179 0.00828504 8.22803813 0.02469685 10.9140625 0.046875 C11.72522522 0.0512709 12.53638794 0.05566681 13.37213135 0.06019592 C16.62238826 0.10130214 19.27056055 0.21518685 22.375 1.25 C24.22796708 1.3567309 26.08260024 1.43499726 27.9375 1.5 C84.76837675 5.4595283 137.39711438 33.67196779 181.375 68.25 C182.70917969 69.29027344 182.70917969 69.29027344 184.0703125 70.3515625 C192.61685194 77.16328199 200.50511909 84.67867892 208.375 92.25 C209.28596436 93.12591797 209.28596436 93.12591797 210.21533203 94.01953125 C216.62144398 100.21382677 222.66567051 106.49864727 228.1796875 113.51953125 C229.96250767 115.73695349 231.79007106 117.85987755 233.6796875 119.984375 C237.55336631 124.38863105 241.11341838 128.99171607 244.625 133.6875 C245.2761377 134.55785889 245.92727539 135.42821777 246.59814453 136.32495117 C252.12448404 143.7836769 257.27967747 151.42504004 262.17236328 159.31201172 C263.28974808 161.11262084 264.42297221 162.90227154 265.55859375 164.69140625 C270.66452672 172.85551941 275.15918853 181.34913435 279.625 189.875 C280.21579346 190.99503418 280.80658691 192.11506836 281.4152832 193.26904297 C284.79400228 199.79508166 287.64437374 206.33081649 290.18847656 213.22290039 C291.26135129 215.96005549 292.46881018 218.48741288 293.84375 221.08203125 C297.27961699 227.74573423 299.53193085 234.83711865 301.875 241.9375 C302.11556122 242.65844849 302.35612244 243.37939697 302.60397339 244.12219238 C306.53797471 255.95577834 309.68354808 267.80188764 311.86352539 280.09472656 C312.33648167 282.33807267 312.33648167 282.33807267 313.38256836 284.69946289 C314.40835357 287.33571827 314.82742696 289.6144421 315.15625 292.41796875 C315.33607422 293.88266602 315.33607422 293.88266602 315.51953125 295.37695312 C315.69548828 296.89192383 315.69548828 296.89192383 315.875 298.4375 C316.63932312 304.89225072 317.47210207 311.25165939 318.89257812 317.59887695 C320.27239075 325.18156181 320.55450689 332.72090484 320.61328125 340.4140625 C320.62312042 341.47180374 320.63295959 342.52954498 320.64309692 343.61933899 C321.39501273 445.51604384 321.39501273 445.51604384 294.375 473.25 C288.92072776 477.97949282 283.48177509 478.72864274 276.4453125 478.65234375 C271.49117283 478.00313715 268.81491048 475.71982275 265.375 472.25 C264.78203125 471.693125 264.1890625 471.13625 263.578125 470.5625 C254.56002312 461.30497949 250.33219554 448.0219744 246.09280396 436.06616211 C233.4954392 400.69165433 217.84810056 366.80130677 197.375 335.25 C196.98086914 334.63608398 196.58673828 334.02216797 196.18066406 333.38964844 C191.26364853 325.74046319 185.91796662 318.45495823 180.375 311.25 C179.94815918 310.69022461 179.52131836 310.13044922 179.08154297 309.55371094 C172.98894822 301.57430531 166.61230157 294.01824664 159.73242188 286.70898438 C158.39054008 285.26670279 157.07781917 283.79746818 155.765625 282.328125 C145.59262903 270.95122419 134.50770299 260.52014338 122.375 251.25 C120.9209375 250.10337891 120.9209375 250.10337891 119.4375 248.93359375 C89.99242584 225.78541171 57.53923959 208.09663242 22.375 195.25 C21.41799194 194.89760254 21.41799194 194.89760254 20.44165039 194.53808594 C8.45099475 190.18430953 -3.6581789 187.30905427 -16.1496582 184.78076172 C-18.28863903 184.32212237 -20.37967071 183.7895987 -22.48828125 183.2109375 C-53.67978585 175.28329337 -93.34517792 176.27807679 -124.625 183.25 C-124.955 183.58 -125.285 183.91 -125.625 184.25 C-127.1811547 184.55518762 -128.74570108 184.81775915 -130.3125 185.0625 C-137.24417241 186.26879104 -143.89107924 188.23846708 -150.625 190.25 C-151.51316406 190.4975 -152.40132812 190.745 -153.31640625 191 C-195.34837992 202.87420123 -238.37681073 232.11740532 -260.625 270.25 C-261.40888068 271.50291847 -262.19554768 272.75409624 -262.984375 274.00390625 C-274.4375552 292.41401148 -280.89010578 311.77304422 -284.1328125 333.1484375 C-284.625 335.25 -284.625 335.25 -286.625 338.25 C-289.41951846 337.9148466 -291.15220031 337.68756702 -293.25 335.74609375 C-297.64188345 329.17074552 -299.98483641 322.17138428 -301.99414062 314.58447266 C-302.4147169 313.02814512 -302.85883407 311.47798931 -303.32617188 309.93505859 C-310.94696624 284.64083664 -310.47728732 252.95416392 -304.625 227.25 C-304.31900879 225.88101563 -304.31900879 225.88101563 -304.00683594 224.484375 C-294.90903173 184.86191476 -276.04634182 148.81994038 -250.625 117.25 C-250.0069751 116.475354 -250.0069751 116.475354 -249.37646484 115.68505859 C-242.61640771 107.2836814 -235.15956571 99.5786378 -227.5625 91.9375 C-226.65274414 91.018479 -225.74298828 90.09945801 -224.80566406 89.15258789 C-218.71804053 83.09287418 -212.35402137 77.58263636 -205.625 72.25 C-204.21194261 71.10062543 -202.79915927 69.9509138 -201.38671875 68.80078125 C-174.9525145 47.64378205 -144.77839257 30.38447887 -112.6171875 19.63671875 C-109.62141169 18.63044921 -106.7159693 17.47594624 -103.796875 16.265625 C-98.62597454 14.17629771 -93.40153651 12.67966055 -88 11.3125 C-87.00564941 11.05944092 -86.01129883 10.80638184 -84.98681641 10.5456543 C-81.86989771 9.76434602 -78.74899029 9.00250835 -75.625 8.25 C-74.17287109 7.89905273 -74.17287109 7.89905273 -72.69140625 7.54101562 C-48.59384107 1.83541844 -24.69186585 -0.01757148 0 0 Z " fill="#A680EF" transform="translate(807.625,212.75)"/>
<path d="M0 0 C1.36232254 0.00648056 1.36232254 0.00648056 2.75216675 0.01309204 C58.25710638 0.32127384 58.25710638 0.32127384 75.375 16.375 C80.77078406 22.75271954 81.88726685 26.45791403 81.75 34.796875 C81.20701097 39.97789529 79.49682998 43.28158007 76.375 47.375 C75.64796875 48.36886719 75.64796875 48.36886719 74.90625 49.3828125 C60.49075362 67.40218298 35.37876846 76.02711452 15.125 85.63671875 C-16.19768227 100.52142019 -46.60164419 117.45476717 -73.625 139.375 C-74.53636719 140.09558594 -75.44773437 140.81617188 -76.38671875 141.55859375 C-94.20152904 155.81552467 -111.82917406 172.1721741 -125.625 190.375 C-126.4396875 191.40753906 -127.254375 192.44007813 -128.09375 193.50390625 C-133.64626286 200.55854313 -138.78254644 207.80928524 -143.625 215.375 C-144.22441406 216.29796875 -144.82382812 217.2209375 -145.44140625 218.171875 C-157.34144134 236.95355878 -166.9996489 256.49709111 -174.625 277.375 C-174.93018555 278.20757324 -175.23537109 279.04014648 -175.54980469 279.89794922 C-183.98184514 303.22918197 -189.01811493 327.53505311 -189.625 352.375 C-189.65223145 353.47585938 -189.67946289 354.57671875 -189.70751953 355.7109375 C-190.13243372 375.83372949 -190.13243372 375.83372949 -187.41015625 395.69921875 C-186.597299 399.50468477 -186.12222574 403.25946568 -185.6875 407.125 C-184.78258442 414.19979456 -182.88152163 420.63023205 -180.625 427.375 C-179.97676883 429.58263066 -179.33093321 431.79096616 -178.6875 434 C-177.15066474 438.97246311 -175.32669909 443.63534511 -173.08203125 448.328125 C-171.99653583 450.59806181 -170.95970722 452.86903398 -169.94921875 455.171875 C-163.37610435 469.94174161 -155.01244162 483.95315162 -144.625 496.375 C-143.94179688 497.23996094 -143.25859375 498.10492187 -142.5546875 498.99609375 C-117.09831147 530.97178559 -80.85946998 548.68793948 -40.625 553.375 C-37.83144246 553.50374328 -35.04612165 553.51759753 -32.25 553.5 C-31.49831543 553.49806641 -30.74663086 553.49613281 -29.97216797 553.49414062 C-25.51256578 553.45935283 -21.17534251 553.2072387 -16.75390625 552.6015625 C-5.55540847 551.40979576 -5.55540847 551.40979576 -1.625 553.375 C-2.04684742 558.29655321 -4.00828445 560.14304142 -7.625 563.375 C-8.17027344 563.89964844 -8.71554687 564.42429687 -9.27734375 564.96484375 C-15.12071484 570.41289164 -21.74241634 574.37103249 -28.625 578.375 C-29.56859375 578.93574219 -30.5121875 579.49648438 -31.484375 580.07421875 C-37.96690552 583.79324276 -44.5000321 586.18750985 -51.625 588.375 C-53.04739417 588.8578483 -54.46922328 589.3423629 -55.890625 589.828125 C-68.80521913 594.14692277 -82.07907473 597.04210575 -95.625 598.375 C-97.12933594 598.54128906 -97.12933594 598.54128906 -98.6640625 598.7109375 C-109.28836997 599.72669816 -119.96598353 599.53958064 -130.625 599.375 C-131.39473145 599.36774902 -132.16446289 599.36049805 -132.95751953 599.35302734 C-185.27896045 598.65885936 -236.43104489 573.34611394 -274.390625 538.42578125 C-276.47666886 536.51114309 -278.60182046 534.65677042 -280.75 532.8125 C-288.55977979 525.97307361 -295.15027806 518.4760739 -301.625 510.375 C-302.56232542 509.23836399 -303.5011917 508.10299731 -304.44140625 506.96875 C-316.39109496 492.45391395 -326.40396393 476.73693223 -335.625 460.375 C-335.99641113 459.71870605 -336.36782227 459.06241211 -336.75048828 458.38623047 C-340.8897398 451.01957856 -344.54077071 443.6340071 -347.421875 435.66796875 C-348.40621945 432.9738052 -349.45717653 430.33554263 -350.546875 427.68359375 C-352.71399883 422.29153519 -354.45989434 416.81480952 -356.125 411.25 C-356.42760742 410.24227539 -356.73021484 409.23455078 -357.04199219 408.19628906 C-364.27425531 383.87945153 -367.85392467 360.24037604 -367.8125 334.875 C-367.81123108 334.07520721 -367.80996216 333.27541443 -367.80865479 332.4513855 C-367.60036328 263.52669463 -338.90585758 197.57413594 -294.625 145.375 C-293.84125 144.40691406 -293.0575 143.43882812 -292.25 142.44140625 C-285.44381315 134.13604807 -277.96140294 126.52304113 -270.375 118.9375 C-269.85557831 118.41717194 -269.33615662 117.89684387 -268.80099487 117.36074829 C-262.924178 111.48509048 -256.99441433 105.72158243 -250.625 100.375 C-249.72998779 99.61981079 -249.72998779 99.61981079 -248.81689453 98.84936523 C-218.18744959 73.23645503 -183.04784861 48.88197047 -145.625 34.375 C-144.22594866 33.75723707 -142.8300564 33.13226763 -141.4375 32.5 C-113.09452094 19.8825036 -82.21962527 10.40772534 -51.625 5.375 C-49.87453741 5.04410448 -48.12450411 4.71092629 -46.375 4.375 C-44.45902909 4.03769052 -42.5421844 3.70534255 -40.625 3.375 C-39.96261826 3.2575795 -39.30023651 3.140159 -38.61778259 3.0191803 C-25.67339807 0.75880787 -13.12894102 -0.11927567 0 0 Z " fill="#FC9663" transform="translate(637.625,96.625)"/>
<path d="M0 0 C3.31156892 0.18397605 4.82173872 0.84988524 7.375 3 C12.78354323 9.18119226 17.48245413 15.54804807 21.75 22.5625 C22.12672852 23.17528809 22.50345703 23.78807617 22.89160156 24.41943359 C25.15630689 28.22126465 26.85057786 31.9988825 28.32958984 36.16723633 C29.20179831 38.55167514 30.3100978 40.7892136 31.4375 43.0625 C35.75782293 52.49455637 37.85259288 62.59076891 39.6875 72.75 C39.86659912 73.7402417 39.86659912 73.7402417 40.04931641 74.75048828 C48.42065554 123.97299321 36.75298656 175.21815485 14 219 C13.35200439 220.25828613 13.35200439 220.25828613 12.69091797 221.54199219 C1.00131258 244.11189084 -13.4385164 264.92773753 -30.74609375 283.5625 C-32.65642781 285.62844186 -34.4932997 287.72950579 -36.3125 289.875 C-43.91827152 298.59031937 -52.20763483 306.65847001 -61.27734375 313.8359375 C-64.12066105 316.09590563 -66.86746036 318.4488946 -69.625 320.8125 C-81.89773346 331.03977788 -95.30025196 339.81524345 -109 348 C-109.61069336 348.36657715 -110.22138672 348.7331543 -110.85058594 349.11083984 C-128.33383937 359.51398237 -146.8290594 368.22308387 -166 375 C-167.7122626 375.69878156 -169.42107972 376.40611576 -171.125 377.125 C-183.55353961 382.12522372 -197.00282462 384.86179902 -210 388 C-211.77310547 388.43505859 -211.77310547 388.43505859 -213.58203125 388.87890625 C-230.01296661 392.6737172 -247.14720083 394.60608605 -264 395 C-265.12519043 395.02723145 -266.25038086 395.05446289 -267.40966797 395.08251953 C-342.28618984 396.61021964 -416.66573395 372.39611873 -473 322 C-473.87785156 321.22011719 -474.75570312 320.44023438 -475.66015625 319.63671875 C-477.32059887 318.15078942 -478.97448372 316.65749318 -480.62109375 315.15625 C-482.18067993 313.74263494 -483.75586852 312.34600394 -485.34765625 310.96875 C-496.67760214 301.09419554 -506.72576619 289.8035703 -516 278 C-516.70511719 277.13632812 -517.41023438 276.27265625 -518.13671875 275.3828125 C-531.93912067 258.08880126 -543.945813 239.01749989 -554.55712891 219.6328125 C-556.12146393 216.7783643 -557.70666853 213.93604471 -559.29296875 211.09375 C-560.38387365 209.1255878 -561.4737445 207.15685203 -562.5625 205.1875 C-563.06378418 204.28604248 -563.56506836 203.38458496 -564.08154297 202.45581055 C-566.84974866 197.39502119 -569.07886614 192.43739098 -571 187 C-571.67009585 185.47141836 -572.35418961 183.94875334 -573.0625 182.4375 C-577.47853859 172.47180371 -578.64753755 161.7592885 -575.890625 151.06640625 C-573.44387836 145.3895248 -568.59362638 140.57004455 -563 138 C-547.29967641 133.32330787 -532.49201144 141.90833961 -519 149 C-515.62856931 150.75882502 -512.25552776 152.51452415 -508.88134766 154.26806641 C-506.56182432 155.47353083 -504.24575385 156.68494545 -501.93115234 157.89990234 C-494.38928049 161.83899038 -486.75530895 165.5008236 -479 169 C-477.865625 169.515625 -476.73125 170.03125 -475.5625 170.5625 C-471.0598351 172.37936478 -466.48452043 173.95296627 -461.890625 175.5234375 C-458.86464803 176.61376443 -455.99581776 177.92764058 -453.08984375 179.3046875 C-445.69738861 182.70060838 -438.03796832 185.23888909 -430.3125 187.75 C-429.52008911 188.00845703 -428.72767822 188.26691406 -427.91125488 188.53320312 C-408.90830486 194.68091094 -389.57954415 199.12358103 -370 203 C-368.77829102 203.24218262 -367.55658203 203.48436523 -366.29785156 203.73388672 C-322.47475466 212.14158173 -273.86867832 212.04474291 -230 204 C-228.50917682 203.73662666 -227.01829146 203.47360501 -225.52734375 203.2109375 C-219.24839358 202.08200345 -213.12764104 200.79639998 -207 199 C-205.27278458 198.57531735 -203.54360222 198.1585506 -201.8125 197.75 C-196.12075438 196.33603545 -190.49673095 194.72935705 -184.875 193.0625 C-184.05233643 192.82176758 -183.22967285 192.58103516 -182.38208008 192.33300781 C-176.43714552 190.55041519 -170.73384156 188.3675674 -165 186 C-163.20590602 185.28080865 -161.41162975 184.56207193 -159.6171875 183.84375 C-118.27484861 167.06897114 -75.59795095 143.32688059 -47 108 C-46.08855715 106.90102882 -45.17709719 105.80207184 -44.265625 104.703125 C-22.08058557 77.7296386 -5.20752472 45.61039778 -3.3515625 10.16796875 C-3.13144728 6.47900065 -2.74032005 2.74032005 0 0 Z " fill="#FC72C0" transform="translate(702,614)"/>
<path d="M0 0 C15.32485618 9.87601843 22.23446877 26.08717296 29.375 42.1875 C30.78807535 45.34335748 32.20737023 48.49638308 33.62890625 51.6484375 C34.14684502 52.7999379 34.14684502 52.7999379 34.67524719 53.97470093 C37.89173464 61.08185845 41.36754571 68.04579941 44.90190125 74.99887085 C46.47239656 78.12680846 47.98071806 81.28441846 49.5 84.4375 C56.7557484 99.1599293 65.41914797 113.36051097 74.8125 126.8125 C75.71106253 128.12361224 76.60948975 129.43481721 77.5078125 130.74609375 C86.40018272 143.62866794 96.00328615 155.88995218 106.6171875 167.40625 C108.44679315 169.41165406 110.22140524 171.44710994 111.9921875 173.50390625 C116.15971197 178.27616086 120.58135772 182.77334559 125.0625 187.25 C125.90369385 188.09038818 126.7448877 188.93077637 127.61157227 189.79663086 C133.42400587 195.55192054 139.35570622 200.79166502 145.8125 205.8125 C147.69019548 207.41351074 149.56504045 209.01786873 151.4375 210.625 C174.40797512 229.73266095 201.40108239 246.01858947 228.8125 257.8125 C230.23033079 258.45577365 231.64713203 259.10132547 233.0625 259.75 C236.7070247 261.37260578 240.39762094 262.82835364 244.125 264.25 C248.55785182 265.94093526 252.97912626 267.65234639 257.375 269.4375 C258.32503906 269.82164062 259.27507812 270.20578125 260.25390625 270.6015625 C262.72515756 271.77116236 264.69801598 273.09106125 266.8125 274.8125 C266.47409865 277.52428375 266.24603548 279.31962587 264.4140625 281.40234375 C256.99354556 286.46178712 248.64954331 288.68776101 240.10742188 291.14404297 C238.11974454 291.72300686 236.14442028 292.34406618 234.171875 292.97265625 C224.96123487 295.84279648 215.64521684 297.22413824 206.10742188 298.48706055 C204.38036684 298.73197165 202.65985546 299.02372169 200.9440918 299.33813477 C159.84742554 305.56334897 109.64135101 296.86669531 71.8125 280.8125 C70.90628906 280.44511719 70.00007812 280.07773437 69.06640625 279.69921875 C28.38653419 263.11393227 -6.82573163 237.84491574 -31.1875 200.8125 C-31.56406738 200.25111328 -31.94063477 199.68972656 -32.32861328 199.11132812 C-58.40295417 159.89409496 -65.90359098 105.68037418 -58.1875 59.8125 C-58.043125 58.9153125 -57.89875 58.018125 -57.75 57.09375 C-57.30436026 54.64273144 -56.76336283 52.23622648 -56.1875 49.8125 C-55.78917969 48.01619141 -55.78917969 48.01619141 -55.3828125 46.18359375 C-51.16695276 27.75413528 -44.7003192 9.11018635 -28.03515625 -1.56640625 C-18.46721601 -6.53204612 -9.14460682 -5.14384133 0 0 Z " fill="#61B4FD" transform="translate(184.1875,475.1875)"/>
<path d="M0 0 C3.08264938 -0.31422437 4.5783159 -0.28514596 7.18359375 1.4765625 C7.92738281 2.18554688 8.67117188 2.89453125 9.4375 3.625 C10.30503906 4.45128906 11.17257812 5.27757812 12.06640625 6.12890625 C12.53578613 6.5892627 13.00516602 7.04961914 13.48876953 7.52392578 C15.08815559 9.0861048 16.71313366 10.61866827 18.33984375 12.15234375 C40.4698495 33.31668774 58.11381134 61.74962162 67.32617188 90.94042969 C68.00241031 93.00736716 68.74706592 95.0360631 69.515625 97.0703125 C76.82057094 116.82540717 80.10230193 138.56826821 80.203125 159.59765625 C80.21022995 160.58137711 80.2173349 161.56509796 80.22465515 162.57862854 C80.49106259 210.31258695 73.31743024 253.68545708 52.4375 297 C52.13419769 297.62940491 51.83089539 298.25880981 51.5184021 298.9072876 C43.22298071 316.0457651 33.62867127 331.92548598 22 347 C21.09614085 348.19254668 20.19249539 349.38525536 19.2890625 350.578125 C12.98116214 358.83162192 6.20772635 366.52470625 -1 374 C-1.61536621 374.64259766 -2.23073242 375.28519531 -2.86474609 375.94726562 C-11.69113353 385.12336539 -20.73108004 393.47316554 -31 401 C-31.85392334 401.63711914 -31.85392334 401.63711914 -32.72509766 402.28710938 C-40.88904322 408.37266676 -49.32877552 413.81567497 -58.13867188 418.91650391 C-59.99248546 419.99562572 -61.83276524 421.09526115 -63.671875 422.19921875 C-69.61622318 425.7332603 -75.46155361 428.83760715 -82.05859375 431.0078125 C-84.90482583 431.9678961 -87.66624912 433.07604574 -90.44750977 434.20800781 C-104.70421023 439.88200319 -118.85257071 442.33131338 -134.1875 442.4375 C-135.22640381 442.44765137 -136.26530762 442.45780273 -137.33569336 442.46826172 C-146.31505959 442.36517578 -153.91220664 440.90848673 -160.55859375 434.5859375 C-164.87125727 429.84083889 -165.68018561 425.16201342 -165.4609375 418.921875 C-163.07763186 403.81414094 -146.78873366 391.66286086 -136.45800781 381.49389648 C-131.7443751 376.83667418 -127.31722074 372.02430401 -123 367 C-121.54554483 365.39231627 -120.08779105 363.78760285 -118.625 362.1875 C-113.8978709 356.93601708 -109.39653717 351.52989505 -105 346 C-104.22414551 345.02498535 -104.22414551 345.02498535 -103.43261719 344.03027344 C-79.49152177 313.83766148 -59.79135037 281.67060107 -42.23046875 247.39794922 C-41.193265 245.37663667 -40.14646242 243.36091078 -39.09375 241.34765625 C-36.01370689 235.36828685 -33.48890387 229.30766373 -31.14453125 223.00390625 C-30.20091692 220.52732121 -29.18520072 218.14786698 -28.0625 215.75 C-25.26327229 209.55171007 -23.11836867 203.10825985 -20.91992188 196.67919922 C-20.27332315 194.79603192 -19.62041111 192.91502629 -18.96289062 191.03564453 C-13.3251861 174.9083172 -8.58521248 158.73253954 -4.71826172 142.08984375 C-4.09039354 139.38885816 -3.44050592 136.69439964 -2.78515625 134 C-1.68978692 129.35949946 -0.79391261 124.70099179 0 120 C0.14953125 119.12923828 0.2990625 118.25847656 0.453125 117.36132812 C3.28896974 99.7473097 3.31602547 82.04660718 3.375 64.25 C3.38285522 63.08488892 3.39071045 61.91977783 3.39880371 60.71936035 C3.47429446 46.30772064 2.73382567 32.34091068 0.66137695 18.07324219 C-0.1951951 12.02808009 -0.32172483 6.10085605 0 0 Z " fill="#80D2B5" transform="translate(1025,690)"/>
<path d="M0 0 C0.66 0.33 1.32 0.66 2 1 C-0.31 3.64 -2.62 6.28 -5 9 C-5.66 8.67 -6.32 8.34 -7 8 C-4.69 5.36 -2.38 2.72 0 0 Z " fill="#73BBFC" transform="translate(151,477)"/>
<path d="M0 0 C0.66 0.99 1.32 1.98 2 3 C-0.75 8.875 -0.75 8.875 -3 10 C-2.01 6.7 -1.02 3.4 0 0 Z " fill="#FCAA81" transform="translate(288,334)"/>
</svg>
